<?xml version="1.0" encoding="UTF-8"?>
<!DOCTYPE svg PUBLIC "-//W3C//DTD SVG 1.1//EN" "http://www.w3.org/Graphics/SVG/1.1/DTD/svg11.dtd">
<!-- Creator: CorelDRAW 2020 (64 Bit) -->
<svg xmlns="http://www.w3.org/2000/svg" xml:space="preserve" width="16.3406mm" height="5.9266mm" version="1.1" style="shape-rendering:geometricPrecision; text-rendering:geometricPrecision; image-rendering:optimizeQuality; fill-rule:evenodd; clip-rule:evenodd"
viewBox="0 0 1634.06 592.66"
 xmlns:xlink="http://www.w3.org/1999/xlink"
 xmlns:xodm="http://www.corel.com/coreldraw/odm/2003">
 <defs>
  <style type="text/css">
   <![CDATA[
    .fil0 {fill:#4087F3}
    .fil1 {fill:#4D5154;fill-rule:nonzero}
   ]]>
  </style>
 </defs>
 <g id="Camada_x0020_1">
  <metadata id="CorelCorpID_0Corel-Layer"/>
  <path class="fil0" d="M352.25 126.17c94.66,11.05 162.42,96.73 151.37,191.39 -11.05,94.65 -96.72,162.42 -191.38,151.38 -94.64,-11.05 -162.43,-96.74 -151.38,-191.39 11.06,-94.66 96.75,-162.43 191.39,-151.38zm126.94 -47.99c21.76,2.54 37.35,22.24 34.82,44 -2.56,21.76 -22.23,37.34 -44,34.8 -21.77,-2.54 -37.35,-22.24 -34.79,-44 2.52,-21.76 22.22,-37.34 43.97,-34.8zm-119.59 -14.89c22.85,2.67 44.55,8.56 64.71,17.12 -2.35,3.18 -4.4,6.59 -6.13,10.22 -18.71,-7.8 -38.8,-13.16 -59.95,-15.62 -122.23,-14.27 -232.9,73.26 -247.17,195.49 -14.25,122.23 73.28,232.9 195.5,247.17 122.23,14.27 232.91,-73.27 247.17,-195.5 6.69,-57.35 -9.03,-112.14 -40.24,-155.64 3.11,-2.47 5.99,-5.24 8.59,-8.26 33.5,46.01 50.49,104.27 43.36,165.27 -15.04,128.7 -131.53,220.87 -260.26,205.83 -128.69,-15.01 -220.85,-131.54 -205.82,-260.24 15.02,-128.71 131.53,-220.86 260.24,-205.84zm22.54 197.1c20.52,-20.51 53.79,-20.51 74.31,0l-20.11 20.09c-9.4,-9.41 -24.69,-9.41 -34.12,0 -9.42,9.42 -9.42,24.7 0,34.13 9.43,9.41 24.72,9.41 34.12,0l20.11 20.08c-20.52,20.51 -53.79,20.51 -74.31,0 -20.5,-20.52 -20.5,-53.78 0,-74.3zm-124.6 -15.21l0 0c27.21,0 49.49,23.6 49.49,52.45l0 52.44 -31.12 0 0 -50.22c0,-8.57 -5.3,-15.88 -12.59,-18.45 -3.89,-1.36 -8.09,-1.3 -11.96,0.19 -7.04,2.71 -12.1,9.89 -12.1,18.26l0 50.22 -31.22 0 0 -52.44c0,-28.85 22.29,-52.45 49.5,-52.45zm67.24 1.31l27 0c1.65,0 2.97,1.32 2.97,2.95l0 97.68c0,1.63 -1.32,2.95 -2.97,2.95l-27 0c-1.65,0 -2.97,-1.32 -2.97,-2.95l0 -97.68c0,-1.63 1.32,-2.95 2.97,-2.95zm13.5 -41.68c8.46,0 15.31,6.86 15.31,15.31 0,8.45 -6.85,15.31 -15.31,15.31 -8.44,0 -15.31,-6.86 -15.31,-15.31 0,-8.45 6.87,-15.31 15.31,-15.31z"/>
  <path class="fil1" d="M755.33 186.24c0,1.18 -0.21,2.22 -0.6,3.16 -0.42,0.92 -0.97,1.68 -1.68,2.31 -0.68,0.6 -1.49,1.04 -2.43,1.33 -0.96,0.29 -1.91,0.42 -2.87,0.42l-8.61 0c-1.8,0 -3.34,-0.19 -4.65,-0.53 -1.28,-0.36 -2.48,-1.02 -3.58,-1.96 -1.13,-0.94 -2.17,-2.22 -3.19,-3.84 -1.02,-1.6 -2.17,-3.69 -3.45,-6.25l-24.61 -46.36c-1.44,-2.77 -2.87,-5.75 -4.36,-8.94 -1.49,-3.19 -2.8,-6.3 -3.98,-9.31l-0.15 0c0.2,3.69 0.36,7.35 0.47,11.01 0.1,3.63 0.15,7.43 0.15,11.3l0 51.9c0,0.49 -0.13,0.96 -0.42,1.38 -0.28,0.39 -0.78,0.73 -1.46,1.02 -0.68,0.29 -1.62,0.5 -2.8,0.66 -1.17,0.15 -2.69,0.23 -4.52,0.23 -1.8,0 -3.3,-0.08 -4.47,-0.23 -1.18,-0.16 -2.09,-0.37 -2.75,-0.66 -0.68,-0.26 -1.15,-0.63 -1.38,-1.02 -0.26,-0.42 -0.4,-0.89 -0.4,-1.38l0 -89.11c0,-2.41 0.71,-4.21 2.12,-5.41 1.39,-1.21 3.11,-1.81 5.18,-1.81l10.8 0c1.93,0 3.58,0.16 4.91,0.5 1.34,0.34 2.51,0.89 3.56,1.65 1.05,0.75 2.04,1.83 2.95,3.19 0.92,1.33 1.86,3.03 2.83,5.02l19.27 36.26c1.12,2.2 2.22,4.37 3.32,6.49 1.1,2.11 2.17,4.23 3.16,6.35 1.02,2.12 2.02,4.21 2.98,6.25 1,2.06 1.94,4.1 2.85,6.14l0.08 0c-0.16,-3.58 -0.29,-7.32 -0.36,-11.19 -0.08,-3.89 -0.11,-7.61 -0.11,-11.14l0 -46.54c0,-0.49 0.16,-0.96 0.47,-1.38 0.29,-0.4 0.81,-0.76 1.52,-1.08 0.73,-0.31 1.67,-0.52 2.85,-0.65 1.17,-0.13 2.69,-0.18 4.52,-0.18 1.75,0 3.22,0.05 4.39,0.18 1.18,0.13 2.07,0.34 2.72,0.65 0.63,0.32 1.1,0.68 1.34,1.08 0.26,0.42 0.39,0.86 0.39,1.38l0 89.11zm85.29 4.47c0,0.5 -0.13,0.94 -0.39,1.33 -0.24,0.4 -0.68,0.71 -1.34,0.97 -0.63,0.24 -1.46,0.45 -2.53,0.58 -1.05,0.13 -2.36,0.18 -3.93,0.18 -1.7,0 -3.06,-0.05 -4.1,-0.18 -1.05,-0.13 -1.88,-0.34 -2.48,-0.58 -0.63,-0.26 -1.05,-0.57 -1.31,-0.97 -0.26,-0.39 -0.39,-0.83 -0.39,-1.33l0 -7.89c-3.77,4.05 -7.61,7.11 -11.54,9.15 -3.92,2.04 -7.97,3.06 -12.15,3.06 -4.71,0 -8.68,-0.76 -11.87,-2.31 -3.19,-1.51 -5.78,-3.63 -7.74,-6.27 -1.96,-2.67 -3.38,-5.73 -4.24,-9.23 -0.84,-3.5 -1.25,-7.87 -1.25,-13.07l0 -41.84c0,-0.49 0.13,-0.94 0.41,-1.33 0.29,-0.39 0.81,-0.71 1.55,-0.97 0.73,-0.23 1.75,-0.44 3,-0.57 1.26,-0.14 2.8,-0.19 4.66,-0.19 1.88,0 3.45,0.05 4.68,0.19 1.23,0.13 2.22,0.34 2.95,0.57 0.76,0.26 1.28,0.58 1.57,0.97 0.32,0.39 0.47,0.84 0.47,1.33l0 38.62c0,3.58 0.24,6.3 0.68,8.18 0.47,1.91 1.18,3.53 2.12,4.87 0.94,1.36 2.14,2.4 3.61,3.16 1.44,0.73 3.14,1.1 5.1,1.1 2.45,0 4.91,-0.89 7.4,-2.67 2.45,-1.78 5.12,-4.39 7.92,-7.79l0 -45.47c0,-0.49 0.13,-0.94 0.42,-1.33 0.28,-0.39 0.78,-0.71 1.54,-0.97 0.73,-0.23 1.73,-0.44 2.93,-0.57 1.23,-0.14 2.8,-0.19 4.68,-0.19 1.88,0 3.45,0.05 4.68,0.19 1.2,0.13 2.19,0.34 2.9,0.57 0.71,0.26 1.23,0.58 1.52,0.97 0.31,0.39 0.47,0.84 0.47,1.33l0 68.4zm-28.76 -101.97c0.36,-0.55 0.78,-1.05 1.3,-1.44 0.5,-0.42 1.15,-0.73 1.91,-0.97 0.76,-0.23 1.73,-0.39 2.9,-0.49 1.18,-0.11 2.59,-0.16 4.29,-0.16 2.33,0 4.19,0.1 5.52,0.31 1.36,0.21 2.33,0.5 2.93,0.87 0.57,0.39 0.84,0.83 0.78,1.36 -0.05,0.49 -0.28,1.04 -0.76,1.59l-14.82 17.81c-0.42,0.52 -0.81,0.94 -1.23,1.28 -0.39,0.31 -0.91,0.6 -1.57,0.81 -0.63,0.18 -1.44,0.34 -2.4,0.44 -0.97,0.11 -2.2,0.16 -3.66,0.16 -1.78,0 -3.19,-0.08 -4.24,-0.23 -1.05,-0.16 -1.78,-0.4 -2.2,-0.74 -0.39,-0.31 -0.57,-0.76 -0.49,-1.25 0.08,-0.52 0.34,-1.1 0.81,-1.78l10.93 -17.57zm99.77 91.07c0,1.33 -0.03,2.43 -0.1,3.35 -0.08,0.88 -0.19,1.64 -0.32,2.27 -0.13,0.6 -0.29,1.1 -0.47,1.49 -0.18,0.39 -0.57,0.86 -1.18,1.46 -0.62,0.58 -1.67,1.31 -3.13,2.15 -1.49,0.84 -3.17,1.59 -5.08,2.27 -1.88,0.66 -3.92,1.21 -6.14,1.6 -2.22,0.42 -4.52,0.63 -6.88,0.63 -5.25,0 -9.91,-0.81 -13.96,-2.46 -4.08,-1.62 -7.48,-4.05 -10.25,-7.24 -2.74,-3.19 -4.84,-7.12 -6.22,-11.72 -1.41,-4.6 -2.12,-9.86 -2.12,-15.79 0,-6.85 0.86,-12.79 2.56,-17.75 1.73,-5 4.11,-9.13 7.17,-12.4 3.06,-3.27 6.69,-5.7 10.87,-7.29 4.19,-1.6 8.79,-2.38 13.81,-2.38 2.04,0 4.03,0.18 6.01,0.55 1.96,0.34 3.79,0.83 5.52,1.43 1.7,0.63 3.24,1.31 4.58,2.07 1.36,0.78 2.32,1.44 2.87,2.01 0.58,0.55 0.97,1.02 1.21,1.42 0.2,0.39 0.39,0.88 0.52,1.49 0.13,0.62 0.23,1.38 0.31,2.27 0.08,0.92 0.11,1.99 0.11,3.27 0,2.98 -0.24,5.07 -0.76,6.27 -0.52,1.21 -1.18,1.81 -1.99,1.81 -0.86,0 -1.8,-0.37 -2.77,-1.07 -0.97,-0.71 -2.12,-1.52 -3.45,-2.38 -1.31,-0.87 -2.9,-1.68 -4.73,-2.38 -1.83,-0.71 -4.03,-1.07 -6.59,-1.07 -5.02,0 -8.84,1.93 -11.51,5.77 -2.64,3.87 -3.97,9.52 -3.97,16.97 0,3.66 0.34,6.91 0.99,9.73 0.68,2.8 1.65,5.15 2.96,7.03 1.3,1.89 2.92,3.32 4.89,4.27 1.98,0.94 4.26,1.41 6.87,1.41 2.64,0 4.94,-0.4 6.85,-1.21 1.91,-0.78 3.58,-1.67 5.02,-2.64 1.41,-0.96 2.62,-1.85 3.61,-2.64 0.97,-0.81 1.78,-1.2 2.43,-1.2 0.47,0 0.84,0.13 1.15,0.39 0.32,0.26 0.55,0.73 0.73,1.41 0.19,0.71 0.32,1.6 0.42,2.67 0.11,1.07 0.16,2.46 0.16,4.16zm33.33 10.9c0,0.5 -0.15,0.94 -0.47,1.33 -0.29,0.4 -0.81,0.71 -1.57,0.97 -0.73,0.24 -1.72,0.45 -2.93,0.58 -1.22,0.13 -2.79,0.18 -4.68,0.18 -1.88,0 -3.45,-0.05 -4.68,-0.18 -1.2,-0.13 -2.19,-0.34 -2.92,-0.58 -0.76,-0.26 -1.29,-0.57 -1.57,-0.97 -0.32,-0.39 -0.47,-0.83 -0.47,-1.33l0 -100.79c0,-0.53 0.15,-0.97 0.47,-1.39 0.28,-0.39 0.81,-0.76 1.57,-1.02 0.73,-0.29 1.72,-0.5 2.92,-0.65 1.23,-0.16 2.8,-0.24 4.68,-0.24 1.89,0 3.46,0.08 4.68,0.24 1.21,0.15 2.2,0.36 2.93,0.65 0.76,0.26 1.28,0.63 1.57,1.02 0.32,0.42 0.47,0.86 0.47,1.39l0 100.79zm82.31 -36.16c0,2.35 -0.52,4.08 -1.57,5.2 -1.04,1.13 -2.48,1.7 -4.34,1.7l-41.62 0c0,2.91 0.34,5.52 1.04,7.9 0.68,2.35 1.78,4.37 3.27,6.01 1.52,1.65 3.45,2.91 5.83,3.77 2.38,0.86 5.21,1.31 8.53,1.31 3.37,0 6.32,-0.24 8.89,-0.74 2.53,-0.49 4.75,-1.02 6.61,-1.62 1.86,-0.6 3.4,-1.12 4.63,-1.62 1.23,-0.5 2.22,-0.73 2.98,-0.73 0.47,0 0.86,0.08 1.15,0.26 0.31,0.18 0.58,0.5 0.78,0.97 0.19,0.44 0.34,1.1 0.42,1.93 0.08,0.84 0.11,1.91 0.11,3.17 0,1.12 -0.03,2.09 -0.08,2.87 -0.05,0.79 -0.13,1.47 -0.24,2.02 -0.1,0.57 -0.23,1.04 -0.44,1.41 -0.21,0.39 -0.47,0.76 -0.81,1.12 -0.34,0.34 -1.23,0.84 -2.72,1.47 -1.49,0.62 -3.37,1.23 -5.67,1.83 -2.3,0.6 -4.92,1.12 -7.87,1.57 -2.96,0.44 -6.12,0.68 -9.5,0.68 -6.09,0 -11.4,-0.76 -15.97,-2.31 -4.55,-1.51 -8.37,-3.84 -11.45,-6.95 -3.06,-3.11 -5.34,-7.06 -6.85,-11.79 -1.49,-4.76 -2.25,-10.33 -2.25,-16.71 0,-6.07 0.78,-11.53 2.38,-16.42 1.57,-4.86 3.87,-8.99 6.9,-12.39 3.01,-3.4 6.67,-5.99 10.98,-7.77 4.34,-1.8 9.2,-2.69 14.62,-2.69 5.72,0 10.61,0.83 14.67,2.53 4.07,1.68 7.4,4.03 10.01,7.01 2.59,2.98 4.52,6.54 5.75,10.62 1.23,4.08 1.83,8.52 1.83,13.33l0 3.06zm-18.67 -5.49c0.16,-5.41 -0.94,-9.67 -3.26,-12.76 -2.33,-3.11 -5.91,-4.65 -10.78,-4.65 -2.45,0 -4.6,0.47 -6.4,1.38 -1.83,0.92 -3.35,2.15 -4.55,3.71 -1.21,1.57 -2.12,3.4 -2.75,5.52 -0.65,2.15 -1.02,4.39 -1.12,6.8l28.86 0zm103.62 6.77c0,5.81 -0.75,11.11 -2.3,15.93 -1.54,4.78 -3.84,8.91 -6.98,12.39 -3.11,3.48 -7.01,6.14 -11.71,8.05 -4.71,1.88 -10.2,2.83 -16.47,2.83 -6.1,0 -11.38,-0.84 -15.88,-2.54 -4.49,-1.67 -8.23,-4.13 -11.19,-7.35 -2.95,-3.21 -5.15,-7.16 -6.59,-11.87 -1.43,-4.68 -2.14,-10.04 -2.14,-16.08 0,-5.8 0.79,-11.14 2.33,-15.95 1.57,-4.84 3.89,-8.97 7.03,-12.42 3.11,-3.42 7.01,-6.09 11.69,-8 4.65,-1.88 10.14,-2.82 16.42,-2.82 6.14,0 11.45,0.83 15.95,2.48 4.5,1.67 8.21,4.11 11.14,7.32 2.95,3.22 5.12,7.17 6.56,11.87 1.44,4.68 2.14,10.07 2.14,16.16zm-19.76 0.76c0,-3.37 -0.26,-6.48 -0.81,-9.31 -0.55,-2.85 -1.44,-5.31 -2.75,-7.4 -1.28,-2.09 -2.98,-3.74 -5.1,-4.91 -2.14,-1.18 -4.81,-1.76 -8.05,-1.76 -2.88,0 -5.39,0.53 -7.56,1.57 -2.14,1.05 -3.92,2.59 -5.31,4.61 -1.38,2.01 -2.43,4.44 -3.11,7.26 -0.7,2.85 -1.04,6.07 -1.04,9.7 0,3.38 0.29,6.49 0.83,9.31 0.58,2.85 1.49,5.31 2.75,7.4 1.25,2.09 2.95,3.72 5.12,4.87 2.15,1.15 4.82,1.72 8.01,1.72 2.92,0 5.46,-0.52 7.63,-1.57 2.14,-1.04 3.92,-2.56 5.31,-4.55 1.38,-2.01 2.4,-4.42 3.08,-7.24 0.66,-2.85 1,-6.07 1,-9.7zm-398.63 187.77c0,0.5 -0.15,0.97 -0.49,1.39 -0.34,0.39 -0.89,0.73 -1.65,0.99 -0.76,0.24 -1.81,0.45 -3.06,0.61 -1.28,0.15 -2.93,0.23 -4.92,0.23 -1.93,0 -3.55,-0.08 -4.86,-0.23 -1.31,-0.16 -2.35,-0.37 -3.11,-0.61 -0.76,-0.26 -1.31,-0.6 -1.65,-0.99 -0.34,-0.42 -0.5,-0.89 -0.5,-1.39l0 -93.65c0,-0.5 0.16,-0.97 0.5,-1.39 0.34,-0.39 0.89,-0.73 1.7,-0.99 0.79,-0.26 1.81,-0.45 3.09,-0.6 1.28,-0.16 2.9,-0.24 4.83,-0.24 1.99,0 3.64,0.08 4.92,0.24 1.25,0.15 2.3,0.34 3.06,0.6 0.76,0.26 1.31,0.6 1.65,0.99 0.34,0.42 0.49,0.89 0.49,1.39l0 93.65zm85.76 0.16c0,0.5 -0.16,0.94 -0.47,1.33 -0.29,0.4 -0.81,0.71 -1.52,0.97 -0.73,0.24 -1.72,0.45 -2.98,0.58 -1.25,0.13 -2.8,0.18 -4.63,0.18 -1.91,0 -3.47,-0.05 -4.73,-0.18 -1.25,-0.13 -2.25,-0.34 -2.98,-0.58 -0.71,-0.26 -1.23,-0.57 -1.52,-0.97 -0.31,-0.39 -0.47,-0.83 -0.47,-1.33l0 -38.98c0,-3.32 -0.23,-5.94 -0.73,-7.82 -0.47,-1.91 -1.18,-3.53 -2.09,-4.86 -0.92,-1.36 -2.12,-2.41 -3.56,-3.17 -1.46,-0.73 -3.13,-1.1 -5.07,-1.1 -2.46,0 -4.92,0.89 -7.43,2.7 -2.48,1.77 -5.09,4.39 -7.79,7.79l0 45.44c0,0.5 -0.15,0.94 -0.47,1.33 -0.29,0.4 -0.81,0.71 -1.57,0.97 -0.73,0.24 -1.72,0.45 -2.93,0.58 -1.22,0.13 -2.79,0.18 -4.68,0.18 -1.88,0 -3.45,-0.05 -4.68,-0.18 -1.2,-0.13 -2.19,-0.34 -2.92,-0.58 -0.76,-0.26 -1.29,-0.57 -1.57,-0.97 -0.32,-0.39 -0.47,-0.83 -0.47,-1.33l0 -68.4c0,-0.49 0.13,-0.94 0.39,-1.33 0.23,-0.39 0.7,-0.71 1.36,-0.97 0.68,-0.23 1.51,-0.44 2.56,-0.57 1.05,-0.14 2.38,-0.19 3.95,-0.19 1.65,0 2.98,0.05 4.05,0.19 1.07,0.13 1.91,0.34 2.51,0.57 0.58,0.26 1,0.58 1.26,0.97 0.26,0.39 0.39,0.84 0.39,1.33l0 7.9c3.76,-4.08 7.61,-7.11 11.53,-9.15 3.9,-2.04 7.97,-3.06 12.21,-3.06 4.65,0 8.58,0.76 11.77,2.3 3.19,1.52 5.75,3.61 7.74,6.25 1.96,2.61 3.37,5.7 4.23,9.23 0.86,3.53 1.31,7.76 1.31,12.7l0 42.23zm57.94 -6.72c0,2.25 -0.13,3.98 -0.42,5.18 -0.28,1.2 -0.65,2.04 -1.12,2.51 -0.45,0.5 -1.13,0.94 -2.01,1.31 -0.92,0.39 -1.97,0.73 -3.17,0.99 -1.17,0.29 -2.48,0.5 -3.89,0.65 -1.42,0.16 -2.83,0.24 -4.27,0.24 -3.81,0 -7.13,-0.5 -9.96,-1.47 -2.8,-0.96 -5.12,-2.45 -6.98,-4.47 -1.83,-2.01 -3.19,-4.55 -4.05,-7.63 -0.86,-3.06 -1.31,-6.69 -1.31,-10.88l0 -35.01 -8.29 0c-0.96,0 -1.72,-0.6 -2.22,-1.8 -0.52,-1.21 -0.78,-3.22 -0.78,-6.04 0,-1.49 0.05,-2.75 0.18,-3.77 0.13,-1.02 0.34,-1.83 0.6,-2.43 0.24,-0.57 0.58,-0.99 0.97,-1.25 0.36,-0.27 0.83,-0.4 1.33,-0.4l8.21 0 0 -15.29c0,-0.5 0.13,-0.97 0.42,-1.39 0.29,-0.39 0.81,-0.73 1.54,-1.02 0.73,-0.29 1.75,-0.49 3.01,-0.63 1.25,-0.13 2.8,-0.18 4.65,-0.18 1.89,0 3.45,0.05 4.71,0.18 1.25,0.14 2.25,0.34 2.98,0.63 0.71,0.29 1.23,0.63 1.52,1.02 0.31,0.42 0.47,0.89 0.47,1.39l0 15.29 14.82 0c0.53,0 0.97,0.13 1.34,0.4 0.39,0.26 0.7,0.68 0.96,1.25 0.26,0.6 0.45,1.41 0.58,2.43 0.13,1.02 0.18,2.28 0.18,3.77 0,2.82 -0.26,4.83 -0.76,6.04 -0.52,1.2 -1.25,1.8 -2.22,1.8l-14.9 0 0 32.11c0,3.74 0.57,6.54 1.75,8.39 1.18,1.86 3.27,2.8 6.27,2.8 1.02,0 1.94,-0.08 2.75,-0.26 0.81,-0.18 1.54,-0.39 2.17,-0.63 0.65,-0.21 1.18,-0.42 1.62,-0.6 0.42,-0.18 0.84,-0.26 1.18,-0.26 0.31,0 0.6,0.08 0.89,0.26 0.26,0.18 0.49,0.52 0.65,1.07 0.13,0.52 0.29,1.26 0.42,2.17 0.13,0.94 0.18,2.09 0.18,3.53zm75.07 -29.44c0,2.35 -0.52,4.08 -1.57,5.2 -1.04,1.13 -2.48,1.7 -4.34,1.7l-41.62 0c0,2.91 0.34,5.52 1.04,7.9 0.68,2.35 1.78,4.37 3.27,6.01 1.52,1.65 3.45,2.91 5.83,3.77 2.38,0.86 5.21,1.31 8.53,1.31 3.37,0 6.32,-0.24 8.89,-0.74 2.53,-0.49 4.75,-1.02 6.61,-1.62 1.86,-0.6 3.4,-1.12 4.63,-1.62 1.23,-0.5 2.22,-0.73 2.98,-0.73 0.47,0 0.86,0.08 1.15,0.26 0.31,0.18 0.58,0.5 0.78,0.97 0.19,0.44 0.34,1.1 0.42,1.93 0.08,0.84 0.11,1.91 0.11,3.17 0,1.12 -0.03,2.09 -0.08,2.87 -0.05,0.79 -0.13,1.47 -0.24,2.02 -0.1,0.57 -0.23,1.04 -0.44,1.41 -0.21,0.39 -0.47,0.76 -0.81,1.12 -0.34,0.34 -1.23,0.84 -2.72,1.47 -1.49,0.62 -3.37,1.23 -5.67,1.83 -2.3,0.6 -4.92,1.12 -7.87,1.57 -2.96,0.44 -6.12,0.68 -9.5,0.68 -6.09,0 -11.4,-0.76 -15.97,-2.31 -4.55,-1.51 -8.37,-3.84 -11.45,-6.95 -3.06,-3.11 -5.34,-7.06 -6.85,-11.79 -1.49,-4.76 -2.25,-10.33 -2.25,-16.71 0,-6.07 0.78,-11.53 2.38,-16.42 1.57,-4.86 3.87,-8.99 6.9,-12.39 3.01,-3.4 6.67,-5.99 10.98,-7.77 4.34,-1.8 9.2,-2.69 14.62,-2.69 5.72,0 10.61,0.83 14.67,2.53 4.07,1.68 7.4,4.03 10.01,7.01 2.59,2.98 4.52,6.54 5.75,10.62 1.23,4.08 1.83,8.52 1.83,13.33l0 3.06zm-18.67 -5.49c0.16,-5.41 -0.94,-9.67 -3.26,-12.76 -2.33,-3.11 -5.91,-4.65 -10.78,-4.65 -2.45,0 -4.6,0.47 -6.4,1.38 -1.83,0.92 -3.35,2.15 -4.55,3.71 -1.21,1.57 -2.12,3.4 -2.75,5.52 -0.65,2.15 -1.02,4.39 -1.12,6.8l28.86 0zm96.12 -21.96c0,2.45 -0.29,4.26 -0.86,5.44 -0.55,1.17 -1.23,1.77 -2.07,1.77l-8.03 0c1.13,1.23 1.91,2.62 2.41,4.16 0.5,1.57 0.73,3.19 0.73,4.86 0,3.98 -0.68,7.51 -1.99,10.59 -1.33,3.09 -3.24,5.7 -5.72,7.82 -2.46,2.12 -5.47,3.71 -8.94,4.81 -3.51,1.1 -7.4,1.65 -11.69,1.65 -2.2,0 -4.29,-0.26 -6.28,-0.81 -2.01,-0.52 -3.53,-1.15 -4.6,-1.86 -0.63,0.66 -1.17,1.44 -1.65,2.38 -0.49,0.92 -0.73,1.94 -0.73,3.06 0,1.49 0.66,2.72 1.96,3.66 1.28,0.94 3.11,1.47 5.47,1.57l16.63 0.6c3.87,0.16 7.34,0.71 10.38,1.65 3.03,0.94 5.59,2.27 7.66,4 2.06,1.7 3.66,3.76 4.76,6.14 1.1,2.41 1.64,5.15 1.64,8.21 0,3.38 -0.75,6.54 -2.22,9.52 -1.49,3.01 -3.71,5.6 -6.67,7.79 -2.98,2.2 -6.69,3.92 -11.16,5.21 -4.47,1.28 -9.67,1.9 -15.66,1.9 -5.81,0 -10.77,-0.47 -14.91,-1.38 -4.1,-0.92 -7.47,-2.2 -10.09,-3.82 -2.64,-1.65 -4.55,-3.58 -5.75,-5.86 -1.2,-2.27 -1.8,-4.75 -1.8,-7.47 0,-1.68 0.2,-3.3 0.65,-4.81 0.44,-1.55 1.07,-3.01 1.91,-4.42 0.83,-1.39 1.88,-2.75 3.11,-4 1.23,-1.28 2.61,-2.51 4.21,-3.69 -2.2,-1.18 -3.9,-2.77 -5.1,-4.79 -1.2,-2.01 -1.8,-4.23 -1.8,-6.64 0,-3 0.7,-5.75 2.06,-8.23 1.39,-2.49 3.19,-4.71 5.39,-6.72 -1.81,-1.78 -3.22,-3.92 -4.29,-6.41 -1.07,-2.51 -1.62,-5.62 -1.62,-9.33 0,-4 0.7,-7.56 2.12,-10.7 1.38,-3.13 3.34,-5.77 5.85,-7.95 2.49,-2.17 5.49,-3.81 8.95,-4.96 3.47,-1.15 7.32,-1.73 11.5,-1.73 2.14,0 4.21,0.13 6.17,0.37 1.96,0.26 3.79,0.6 5.47,1.04l21.67 0c0.86,0 1.57,0.58 2.12,1.7 0.52,1.13 0.81,3.01 0.81,5.68zm-24.76 16.18c0,-3.66 -1.02,-6.54 -3.06,-8.57 -2.04,-2.04 -4.92,-3.06 -8.65,-3.06 -1.89,0 -3.56,0.31 -4.97,0.96 -1.44,0.63 -2.62,1.49 -3.58,2.59 -0.95,1.1 -1.65,2.38 -2.1,3.85 -0.47,1.46 -0.68,2.98 -0.68,4.55 0,3.47 1.02,6.22 3.06,8.23 2.04,2.01 4.87,3.03 8.5,3.03 1.94,0 3.63,-0.31 5.05,-0.91 1.43,-0.63 2.61,-1.46 3.55,-2.54 0.97,-1.07 1.68,-2.3 2.17,-3.71 0.47,-1.41 0.71,-2.88 0.71,-4.42zm4.52 54.52c0,-2.28 -0.91,-4.06 -2.74,-5.26 -1.86,-1.23 -4.37,-1.91 -7.59,-1.99l-13.72 -0.39c-1.31,0.97 -2.38,1.91 -3.17,2.8 -0.81,0.89 -1.43,1.73 -1.93,2.56 -0.47,0.81 -0.79,1.6 -0.94,2.36 -0.16,0.75 -0.24,1.56 -0.24,2.38 0,2.53 1.28,4.47 3.87,5.8 2.59,1.33 6.22,1.99 10.9,1.99 2.93,0 5.39,-0.29 7.38,-0.89 1.99,-0.58 3.58,-1.36 4.81,-2.33 1.23,-0.97 2.09,-2.04 2.61,-3.24 0.5,-1.2 0.76,-2.46 0.76,-3.79zm77.03 -69.11c0,1.83 -0.05,3.35 -0.15,4.52 -0.11,1.18 -0.27,2.1 -0.45,2.75 -0.21,0.65 -0.5,1.12 -0.81,1.39 -0.34,0.26 -0.76,0.36 -1.28,0.36 -0.39,0 -0.86,-0.08 -1.39,-0.26 -0.49,-0.18 -1.07,-0.37 -1.72,-0.57 -0.63,-0.21 -1.34,-0.4 -2.09,-0.58 -0.79,-0.18 -1.62,-0.26 -2.54,-0.26 -1.07,0 -2.14,0.21 -3.22,0.65 -1.07,0.45 -2.19,1.1 -3.34,2.04 -1.15,0.92 -2.36,2.15 -3.61,3.66 -1.26,1.55 -2.59,3.43 -4.03,5.68l0 42.64c0,0.5 -0.15,0.94 -0.47,1.33 -0.29,0.4 -0.81,0.71 -1.57,0.97 -0.73,0.24 -1.72,0.45 -2.93,0.58 -1.22,0.13 -2.79,0.18 -4.68,0.18 -1.88,0 -3.45,-0.05 -4.68,-0.18 -1.2,-0.13 -2.19,-0.34 -2.92,-0.58 -0.76,-0.26 -1.29,-0.57 -1.57,-0.97 -0.32,-0.39 -0.47,-0.83 -0.47,-1.33l0 -68.4c0,-0.49 0.13,-0.94 0.39,-1.33 0.23,-0.39 0.7,-0.71 1.36,-0.97 0.68,-0.23 1.51,-0.44 2.56,-0.57 1.05,-0.14 2.38,-0.19 3.95,-0.19 1.65,0 2.98,0.05 4.05,0.19 1.07,0.13 1.91,0.34 2.51,0.57 0.58,0.26 1,0.58 1.26,0.97 0.26,0.39 0.39,0.84 0.39,1.33l0 8.53c1.78,-2.57 3.48,-4.66 5.05,-6.31 1.59,-1.64 3.11,-2.98 4.52,-3.94 1.44,-0.97 2.87,-1.65 4.31,-2.02 1.41,-0.39 2.85,-0.57 4.29,-0.57 0.65,0 1.39,0.02 2.14,0.1 0.76,0.08 1.57,0.21 2.38,0.39 0.81,0.19 1.55,0.4 2.15,0.61 0.63,0.23 1.07,0.47 1.36,0.73 0.26,0.26 0.47,0.55 0.6,0.83 0.13,0.32 0.23,0.74 0.34,1.29 0.1,0.52 0.18,1.33 0.23,2.4 0.06,1.07 0.08,2.51 0.08,4.34z"/>
  <path class="fil1" d="M1113.44 344.76c0,0.7 -0.26,1.25 -0.76,1.67 -0.52,0.42 -1.33,0.71 -2.43,0.89 -1.1,0.18 -2.72,0.26 -4.89,0.26 -2.3,0 -3.97,-0.08 -5.02,-0.26 -1.05,-0.18 -1.8,-0.47 -2.22,-0.89 -0.45,-0.42 -0.66,-0.97 -0.66,-1.67l0 -5.44c-2.82,3.01 -6.01,5.33 -9.62,7.01 -3.58,1.67 -7.58,2.51 -11.97,2.51 -3.61,0 -6.96,-0.47 -9.99,-1.42 -3.03,-0.94 -5.65,-2.35 -7.87,-4.21 -2.22,-1.88 -3.95,-4.18 -5.18,-6.92 -1.23,-2.78 -1.83,-5.99 -1.83,-9.65 0,-4 0.79,-7.45 2.33,-10.38 1.57,-2.96 3.89,-5.36 6.98,-7.3 3.08,-1.91 6.9,-3.32 11.5,-4.23 4.58,-0.92 9.91,-1.39 15.98,-1.39l6.67 0 0 -4.13c0,-2.14 -0.21,-4.03 -0.66,-5.65 -0.42,-1.59 -1.15,-2.95 -2.14,-4.02 -0.99,-1.08 -2.3,-1.86 -3.98,-2.38 -1.64,-0.5 -3.71,-0.76 -6.14,-0.76 -3.22,0 -6.09,0.36 -8.6,1.07 -2.54,0.71 -4.76,1.52 -6.7,2.38 -1.93,0.86 -3.55,1.67 -4.86,2.38 -1.31,0.7 -2.35,1.07 -3.16,1.07 -0.58,0 -1.07,-0.18 -1.49,-0.52 -0.45,-0.37 -0.81,-0.89 -1.08,-1.55 -0.28,-0.65 -0.49,-1.49 -0.65,-2.45 -0.16,-0.97 -0.23,-2.04 -0.23,-3.19 0,-1.6 0.13,-2.85 0.39,-3.77 0.23,-0.91 0.73,-1.72 1.44,-2.48 0.73,-0.73 1.96,-1.54 3.76,-2.43 1.78,-0.89 3.87,-1.73 6.28,-2.49 2.4,-0.78 5.02,-1.41 7.84,-1.88 2.85,-0.5 5.78,-0.73 8.79,-0.73 5.36,0 9.93,0.52 13.75,1.57 3.79,1.04 6.93,2.66 9.36,4.83 2.46,2.17 4.26,4.97 5.39,8.4 1.12,3.4 1.67,7.47 1.67,12.15l0 46zm-18.98 -29.34l-7.35 0c-3.11,0 -5.75,0.24 -7.95,0.68 -2.2,0.47 -3.97,1.15 -5.36,2.09 -1.39,0.92 -2.38,2.02 -3.01,3.32 -0.65,1.31 -0.96,2.8 -0.96,4.47 0,2.88 0.91,5.13 2.72,6.75 1.8,1.65 4.31,2.46 7.53,2.46 2.69,0 5.17,-0.68 7.45,-2.07 2.27,-1.38 4.57,-3.4 6.93,-6.06l0 -11.64zm103.02 29.1c0,0.55 -0.13,1.02 -0.39,1.41 -0.24,0.4 -0.68,0.71 -1.29,0.97 -0.62,0.24 -1.46,0.42 -2.51,0.52 -1.04,0.11 -2.32,0.16 -3.84,0.16 -1.65,0 -2.98,-0.05 -4,-0.16 -1.02,-0.1 -1.83,-0.28 -2.48,-0.52 -0.63,-0.26 -1.1,-0.6 -1.36,-0.97 -0.29,-0.39 -0.45,-0.86 -0.45,-1.43l0 -7.61c-3.5,3.79 -7.21,6.72 -11.06,8.81 -3.87,2.09 -8.13,3.14 -12.84,3.14 -5.2,0 -9.62,-1.02 -13.2,-3.04 -3.61,-2.01 -6.54,-4.73 -8.81,-8.16 -2.28,-3.39 -3.92,-7.39 -4.94,-11.97 -1.02,-4.58 -1.55,-9.39 -1.55,-14.43 0,-6.07 0.66,-11.53 1.97,-16.4 1.3,-4.83 3.19,-8.97 5.7,-12.39 2.51,-3.43 5.62,-6.04 9.36,-7.9 3.71,-1.83 8,-2.74 12.86,-2.74 3.82,0 7.3,0.78 10.41,2.32 3.13,1.57 6.22,3.85 9.28,6.86l0 -36.95c0,-0.52 0.13,-0.97 0.42,-1.39 0.28,-0.39 0.78,-0.75 1.54,-1.02 0.73,-0.28 1.73,-0.49 2.93,-0.65 1.23,-0.16 2.8,-0.23 4.68,-0.23 1.88,0 3.45,0.07 4.68,0.23 1.2,0.16 2.19,0.37 2.9,0.65 0.71,0.27 1.23,0.63 1.52,1.02 0.31,0.42 0.47,0.87 0.47,1.39l0 100.48zm-19.14 -45.68c-2.75,-3.47 -5.41,-6.12 -7.92,-7.97 -2.54,-1.83 -5.18,-2.75 -7.95,-2.75 -2.49,0 -4.66,0.63 -6.46,1.89 -1.83,1.25 -3.27,2.9 -4.37,4.99 -1.1,2.12 -1.93,4.44 -2.45,7.01 -0.55,2.59 -0.82,5.23 -0.82,7.92 0,2.88 0.24,5.65 0.68,8.34 0.48,2.72 1.23,5.12 2.28,7.24 1.04,2.12 2.43,3.82 4.18,5.1 1.73,1.28 3.92,1.91 6.59,1.91 1.31,0 2.62,-0.18 3.87,-0.58 1.26,-0.39 2.51,-0.99 3.82,-1.88 1.31,-0.86 2.64,-1.98 4.03,-3.4 1.38,-1.41 2.9,-3.11 4.52,-5.15l0 -22.67zm107.56 10.8c0,5.81 -0.75,11.11 -2.3,15.93 -1.54,4.78 -3.84,8.91 -6.98,12.39 -3.11,3.48 -7.01,6.14 -11.71,8.05 -4.71,1.88 -10.2,2.83 -16.47,2.83 -6.1,0 -11.38,-0.84 -15.88,-2.54 -4.49,-1.67 -8.23,-4.13 -11.19,-7.35 -2.95,-3.21 -5.15,-7.16 -6.59,-11.87 -1.43,-4.68 -2.14,-10.04 -2.14,-16.08 0,-5.8 0.79,-11.14 2.33,-15.95 1.57,-4.84 3.89,-8.97 7.03,-12.42 3.11,-3.42 7.01,-6.09 11.69,-8 4.65,-1.88 10.14,-2.82 16.42,-2.82 6.14,0 11.45,0.83 15.95,2.48 4.5,1.67 8.21,4.11 11.14,7.32 2.95,3.22 5.12,7.17 6.56,11.87 1.44,4.68 2.14,10.07 2.14,16.16zm-19.76 0.76c0,-3.37 -0.26,-6.48 -0.81,-9.31 -0.55,-2.85 -1.44,-5.31 -2.75,-7.4 -1.28,-2.09 -2.98,-3.74 -5.1,-4.91 -2.14,-1.18 -4.81,-1.76 -8.05,-1.76 -2.88,0 -5.39,0.53 -7.56,1.57 -2.14,1.05 -3.92,2.59 -5.31,4.61 -1.38,2.01 -2.43,4.44 -3.11,7.26 -0.7,2.85 -1.04,6.07 -1.04,9.7 0,3.38 0.29,6.49 0.83,9.31 0.58,2.85 1.49,5.31 2.75,7.4 1.25,2.09 2.95,3.72 5.12,4.87 2.15,1.15 4.82,1.72 8.01,1.72 2.92,0 5.46,-0.52 7.63,-1.57 2.14,-1.04 3.92,-2.56 5.31,-4.55 1.38,-2.01 2.4,-4.42 3.08,-7.24 0.66,-2.85 1,-6.07 1,-9.7zm135.33 34.12c0,0.55 -0.13,1.02 -0.39,1.41 -0.24,0.4 -0.68,0.71 -1.29,0.97 -0.62,0.24 -1.46,0.42 -2.51,0.52 -1.04,0.11 -2.32,0.16 -3.84,0.16 -1.65,0 -2.98,-0.05 -4,-0.16 -1.02,-0.1 -1.83,-0.28 -2.48,-0.52 -0.63,-0.26 -1.1,-0.6 -1.36,-0.97 -0.29,-0.39 -0.45,-0.86 -0.45,-1.43l0 -7.61c-3.5,3.79 -7.21,6.72 -11.06,8.81 -3.87,2.09 -8.13,3.14 -12.84,3.14 -5.2,0 -9.62,-1.02 -13.2,-3.04 -3.61,-2.01 -6.54,-4.73 -8.81,-8.16 -2.28,-3.39 -3.92,-7.39 -4.94,-11.97 -1.02,-4.58 -1.55,-9.39 -1.55,-14.43 0,-6.07 0.66,-11.53 1.97,-16.4 1.3,-4.83 3.19,-8.97 5.7,-12.39 2.51,-3.43 5.62,-6.04 9.36,-7.9 3.71,-1.83 8,-2.74 12.86,-2.74 3.82,0 7.3,0.78 10.41,2.32 3.13,1.57 6.22,3.85 9.28,6.86l0 -36.95c0,-0.52 0.13,-0.97 0.42,-1.39 0.28,-0.39 0.78,-0.75 1.54,-1.02 0.73,-0.28 1.73,-0.49 2.93,-0.65 1.23,-0.16 2.8,-0.23 4.68,-0.23 1.88,0 3.45,0.07 4.68,0.23 1.2,0.16 2.19,0.37 2.9,0.65 0.71,0.27 1.23,0.63 1.52,1.02 0.31,0.42 0.47,0.87 0.47,1.39l0 100.48zm-19.14 -45.68c-2.75,-3.47 -5.41,-6.12 -7.92,-7.97 -2.54,-1.83 -5.18,-2.75 -7.95,-2.75 -2.49,0 -4.66,0.63 -6.46,1.89 -1.83,1.25 -3.27,2.9 -4.37,4.99 -1.1,2.12 -1.93,4.44 -2.45,7.01 -0.55,2.59 -0.82,5.23 -0.82,7.92 0,2.88 0.24,5.65 0.68,8.34 0.48,2.72 1.23,5.12 2.28,7.24 1.04,2.12 2.43,3.82 4.18,5.1 1.73,1.28 3.92,1.91 6.59,1.91 1.31,0 2.62,-0.18 3.87,-0.58 1.26,-0.39 2.51,-0.99 3.82,-1.88 1.31,-0.86 2.64,-1.98 4.03,-3.4 1.38,-1.41 2.9,-3.11 4.52,-5.15l0 -22.67zm101.6 9.52c0,2.35 -0.52,4.08 -1.57,5.2 -1.04,1.13 -2.48,1.7 -4.34,1.7l-41.62 0c0,2.91 0.34,5.52 1.04,7.9 0.68,2.35 1.78,4.37 3.27,6.01 1.52,1.65 3.45,2.91 5.83,3.77 2.38,0.86 5.21,1.31 8.53,1.31 3.37,0 6.32,-0.24 8.89,-0.74 2.53,-0.49 4.75,-1.02 6.61,-1.62 1.86,-0.6 3.4,-1.12 4.63,-1.62 1.23,-0.5 2.22,-0.73 2.98,-0.73 0.47,0 0.86,0.08 1.15,0.26 0.31,0.18 0.58,0.5 0.78,0.97 0.19,0.44 0.34,1.1 0.42,1.93 0.08,0.84 0.11,1.91 0.11,3.17 0,1.12 -0.03,2.09 -0.08,2.87 -0.05,0.79 -0.13,1.47 -0.24,2.02 -0.1,0.57 -0.23,1.04 -0.44,1.41 -0.21,0.39 -0.47,0.76 -0.81,1.12 -0.34,0.34 -1.23,0.84 -2.72,1.47 -1.49,0.62 -3.37,1.23 -5.67,1.83 -2.3,0.6 -4.92,1.12 -7.87,1.57 -2.96,0.44 -6.12,0.68 -9.5,0.68 -6.09,0 -11.4,-0.76 -15.97,-2.31 -4.55,-1.51 -8.37,-3.84 -11.45,-6.95 -3.06,-3.11 -5.34,-7.06 -6.85,-11.79 -1.49,-4.76 -2.25,-10.33 -2.25,-16.71 0,-6.07 0.78,-11.53 2.38,-16.42 1.57,-4.86 3.87,-8.99 6.9,-12.39 3.01,-3.4 6.67,-5.99 10.98,-7.77 4.34,-1.8 9.2,-2.69 14.62,-2.69 5.72,0 10.61,0.83 14.67,2.53 4.07,1.68 7.4,4.03 10.01,7.01 2.59,2.98 4.52,6.54 5.75,10.62 1.23,4.08 1.83,8.52 1.83,13.33l0 3.06zm-18.67 -5.49c0.16,-5.41 -0.94,-9.67 -3.26,-12.76 -2.33,-3.11 -5.91,-4.65 -10.78,-4.65 -2.45,0 -4.6,0.47 -6.4,1.38 -1.83,0.92 -3.35,2.15 -4.55,3.71 -1.21,1.57 -2.12,3.4 -2.75,5.52 -0.65,2.15 -1.02,4.39 -1.12,6.8l28.86 0zm-723.11 183.07c0,1.28 -0.02,2.38 -0.1,3.27 -0.08,0.89 -0.21,1.67 -0.37,2.3 -0.13,0.65 -0.34,1.2 -0.6,1.67 -0.26,0.45 -0.65,0.97 -1.23,1.54 -0.55,0.58 -1.65,1.34 -3.24,2.25 -1.62,0.89 -3.58,1.78 -5.91,2.62 -2.33,0.81 -4.97,1.51 -7.95,2.06 -2.98,0.55 -6.22,0.84 -9.7,0.84 -6.77,0 -12.89,-1.05 -18.35,-3.14 -5.47,-2.09 -10.12,-5.23 -13.94,-9.39 -3.84,-4.15 -6.77,-9.33 -8.81,-15.58 -2.04,-6.22 -3.06,-13.46 -3.06,-21.73 0,-8.42 1.12,-15.89 3.37,-22.43 2.25,-6.54 5.39,-12.03 9.41,-16.47 4.03,-4.45 8.87,-7.79 14.52,-10.1 5.62,-2.3 11.84,-3.45 18.64,-3.45 2.74,0 5.38,0.24 7.95,0.71 2.56,0.44 4.91,1.04 7.08,1.8 2.17,0.74 4.11,1.6 5.86,2.57 1.72,0.99 2.95,1.83 3.63,2.51 0.68,0.7 1.15,1.28 1.42,1.72 0.26,0.47 0.47,1.05 0.6,1.75 0.15,0.74 0.28,1.57 0.36,2.54 0.08,0.97 0.11,2.14 0.11,3.58 0,1.52 -0.05,2.83 -0.16,3.9 -0.1,1.07 -0.29,1.93 -0.52,2.59 -0.26,0.65 -0.58,1.15 -0.92,1.43 -0.36,0.32 -0.78,0.47 -1.23,0.47 -0.75,0 -1.72,-0.44 -2.9,-1.33 -1.18,-0.89 -2.69,-1.88 -4.55,-2.98 -1.85,-1.1 -4.08,-2.09 -6.67,-2.98 -2.56,-0.89 -5.62,-1.33 -9.2,-1.33 -3.92,0 -7.42,0.81 -10.51,2.4 -3.09,1.62 -5.7,3.9 -7.87,6.88 -2.17,3.01 -3.82,6.61 -4.94,10.85 -1.13,4.21 -1.68,8.99 -1.68,14.3 0,5.81 0.61,10.85 1.81,15.11 1.2,4.24 2.9,7.77 5.12,10.51 2.2,2.75 4.89,4.82 8.03,6.15 3.14,1.36 6.67,2.04 10.59,2.04 3.56,0 6.64,-0.42 9.26,-1.26 2.58,-0.83 4.81,-1.77 6.66,-2.77 1.89,-1.02 3.4,-1.93 4.61,-2.74 1.2,-0.81 2.11,-1.23 2.79,-1.23 0.5,0 0.92,0.1 1.21,0.31 0.31,0.21 0.57,0.6 0.78,1.23 0.18,0.6 0.34,1.46 0.44,2.56 0.11,1.13 0.16,2.59 0.16,4.45zm82.41 -22.49c0,5.81 -0.75,11.11 -2.3,15.93 -1.54,4.78 -3.84,8.91 -6.98,12.39 -3.11,3.48 -7.01,6.14 -11.71,8.05 -4.71,1.88 -10.2,2.83 -16.47,2.83 -6.1,0 -11.38,-0.84 -15.88,-2.54 -4.49,-1.67 -8.23,-4.13 -11.19,-7.35 -2.95,-3.21 -5.15,-7.16 -6.59,-11.87 -1.43,-4.68 -2.14,-10.04 -2.14,-16.08 0,-5.8 0.79,-11.14 2.33,-15.95 1.57,-4.84 3.89,-8.97 7.03,-12.42 3.11,-3.42 7.01,-6.09 11.69,-8 4.65,-1.88 10.14,-2.82 16.42,-2.82 6.14,0 11.45,0.83 15.95,2.48 4.5,1.67 8.21,4.11 11.14,7.32 2.95,3.22 5.12,7.17 6.56,11.87 1.44,4.68 2.14,10.07 2.14,16.16zm-19.76 0.76c0,-3.37 -0.26,-6.48 -0.81,-9.31 -0.55,-2.85 -1.44,-5.31 -2.75,-7.4 -1.28,-2.09 -2.98,-3.74 -5.1,-4.91 -2.14,-1.18 -4.81,-1.76 -8.05,-1.76 -2.88,0 -5.39,0.53 -7.56,1.57 -2.14,1.05 -3.92,2.59 -5.31,4.61 -1.38,2.01 -2.43,4.44 -3.11,7.26 -0.7,2.85 -1.04,6.07 -1.04,9.7 0,3.38 0.29,6.49 0.83,9.31 0.58,2.85 1.49,5.31 2.75,7.4 1.25,2.09 2.95,3.72 5.12,4.87 2.15,1.15 4.82,1.72 8.01,1.72 2.92,0 5.46,-0.52 7.63,-1.57 2.14,-1.04 3.92,-2.56 5.31,-4.55 1.38,-2.01 2.4,-4.42 3.08,-7.24 0.66,-2.85 1,-6.07 1,-9.7zm143.8 34.12c0,0.5 -0.15,0.94 -0.47,1.33 -0.28,0.4 -0.81,0.71 -1.51,0.97 -0.73,0.24 -1.7,0.45 -2.93,0.58 -1.23,0.13 -2.8,0.18 -4.68,0.18 -1.96,0 -3.56,-0.05 -4.79,-0.18 -1.23,-0.13 -2.22,-0.34 -2.95,-0.58 -0.73,-0.26 -1.26,-0.57 -1.54,-0.97 -0.29,-0.39 -0.42,-0.83 -0.42,-1.33l0 -40.53c0,-2.3 -0.21,-4.39 -0.66,-6.27 -0.41,-1.91 -1.09,-3.53 -1.98,-4.86 -0.89,-1.36 -2.02,-2.41 -3.35,-3.17 -1.36,-0.73 -2.95,-1.1 -4.84,-1.1 -2.3,0 -4.62,0.89 -6.95,2.7 -2.35,1.77 -4.89,4.39 -7.64,7.79l0 45.44c0,0.5 -0.15,0.94 -0.47,1.33 -0.28,0.4 -0.81,0.71 -1.57,0.97 -0.73,0.24 -1.72,0.45 -2.95,0.58 -1.23,0.13 -2.77,0.18 -4.6,0.18 -1.91,0 -3.48,-0.05 -4.71,-0.18 -1.23,-0.13 -2.22,-0.34 -2.95,-0.58 -0.76,-0.26 -1.28,-0.57 -1.57,-0.97 -0.32,-0.39 -0.47,-0.83 -0.47,-1.33l0 -40.53c0,-2.3 -0.21,-4.39 -0.66,-6.27 -0.41,-1.91 -1.07,-3.53 -1.96,-4.86 -0.86,-1.36 -1.98,-2.41 -3.34,-3.17 -1.39,-0.73 -3.01,-1.1 -4.84,-1.1 -2.35,0 -4.68,0.89 -7.03,2.7 -2.36,1.77 -4.89,4.39 -7.59,7.79l0 45.44c0,0.5 -0.15,0.94 -0.47,1.33 -0.29,0.4 -0.81,0.71 -1.57,0.97 -0.73,0.24 -1.72,0.45 -2.93,0.58 -1.22,0.13 -2.79,0.18 -4.68,0.18 -1.88,0 -3.45,-0.05 -4.68,-0.18 -1.2,-0.13 -2.19,-0.34 -2.92,-0.58 -0.76,-0.26 -1.29,-0.57 -1.57,-0.97 -0.32,-0.39 -0.47,-0.83 -0.47,-1.33l0 -68.4c0,-0.49 0.13,-0.94 0.39,-1.33 0.23,-0.39 0.7,-0.71 1.36,-0.97 0.68,-0.23 1.51,-0.44 2.56,-0.57 1.05,-0.14 2.38,-0.19 3.95,-0.19 1.65,0 2.98,0.05 4.05,0.19 1.07,0.13 1.91,0.34 2.51,0.57 0.58,0.26 1,0.58 1.26,0.97 0.26,0.39 0.39,0.84 0.39,1.33l0 7.9c3.76,-4.08 7.53,-7.11 11.29,-9.15 3.77,-2.04 7.69,-3.06 11.77,-3.06 2.82,0 5.36,0.29 7.61,0.89 2.25,0.57 4.23,1.41 6.01,2.51 1.75,1.09 3.27,2.4 4.55,3.92 1.28,1.54 2.36,3.24 3.22,5.12 2.04,-2.19 4.05,-4.08 6.01,-5.64 1.96,-1.57 3.92,-2.88 5.83,-3.87 1.91,-1 3.82,-1.73 5.75,-2.2 1.91,-0.5 3.85,-0.73 5.86,-0.73 4.53,0 8.37,0.76 11.48,2.3 3.11,1.52 5.62,3.61 7.53,6.25 1.94,2.61 3.29,5.7 4.11,9.23 0.81,3.53 1.22,7.24 1.22,11.19l0 43.74zm83.7 0c0,0.5 -0.13,0.94 -0.39,1.33 -0.24,0.4 -0.68,0.71 -1.34,0.97 -0.63,0.24 -1.46,0.45 -2.53,0.58 -1.05,0.13 -2.36,0.18 -3.93,0.18 -1.7,0 -3.06,-0.05 -4.1,-0.18 -1.05,-0.13 -1.88,-0.34 -2.48,-0.58 -0.63,-0.26 -1.05,-0.57 -1.31,-0.97 -0.26,-0.39 -0.39,-0.83 -0.39,-1.33l0 -7.89c-3.77,4.05 -7.61,7.11 -11.54,9.15 -3.92,2.04 -7.97,3.06 -12.15,3.06 -4.71,0 -8.68,-0.76 -11.87,-2.31 -3.19,-1.51 -5.78,-3.63 -7.74,-6.27 -1.96,-2.67 -3.38,-5.73 -4.24,-9.23 -0.84,-3.5 -1.25,-7.87 -1.25,-13.07l0 -41.84c0,-0.49 0.13,-0.94 0.41,-1.33 0.29,-0.39 0.81,-0.71 1.55,-0.97 0.73,-0.23 1.75,-0.44 3,-0.57 1.26,-0.14 2.8,-0.19 4.66,-0.19 1.88,0 3.45,0.05 4.68,0.19 1.23,0.13 2.22,0.34 2.95,0.57 0.76,0.26 1.28,0.58 1.57,0.97 0.32,0.39 0.47,0.84 0.47,1.33l0 38.62c0,3.58 0.24,6.3 0.68,8.18 0.47,1.91 1.18,3.53 2.12,4.87 0.94,1.36 2.14,2.4 3.61,3.16 1.44,0.73 3.14,1.1 5.1,1.1 2.45,0 4.91,-0.89 7.4,-2.67 2.45,-1.78 5.12,-4.39 7.92,-7.79l0 -45.47c0,-0.49 0.13,-0.94 0.42,-1.33 0.28,-0.39 0.78,-0.71 1.54,-0.97 0.73,-0.23 1.73,-0.44 2.93,-0.57 1.23,-0.14 2.8,-0.19 4.68,-0.19 1.88,0 3.45,0.05 4.68,0.19 1.2,0.13 2.19,0.34 2.9,0.57 0.71,0.26 1.23,0.58 1.52,0.97 0.31,0.39 0.47,0.84 0.47,1.33l0 68.4zm84.66 0c0,0.5 -0.16,0.94 -0.47,1.33 -0.29,0.4 -0.81,0.71 -1.52,0.97 -0.73,0.24 -1.72,0.45 -2.98,0.58 -1.25,0.13 -2.8,0.18 -4.63,0.18 -1.91,0 -3.47,-0.05 -4.73,-0.18 -1.25,-0.13 -2.25,-0.34 -2.98,-0.58 -0.71,-0.26 -1.23,-0.57 -1.52,-0.97 -0.31,-0.39 -0.47,-0.83 -0.47,-1.33l0 -38.98c0,-3.32 -0.23,-5.94 -0.73,-7.82 -0.47,-1.91 -1.18,-3.53 -2.09,-4.86 -0.92,-1.36 -2.12,-2.41 -3.56,-3.17 -1.46,-0.73 -3.13,-1.1 -5.07,-1.1 -2.46,0 -4.92,0.89 -7.43,2.7 -2.48,1.77 -5.09,4.39 -7.79,7.79l0 45.44c0,0.5 -0.15,0.94 -0.47,1.33 -0.29,0.4 -0.81,0.71 -1.57,0.97 -0.73,0.24 -1.72,0.45 -2.93,0.58 -1.22,0.13 -2.79,0.18 -4.68,0.18 -1.88,0 -3.45,-0.05 -4.68,-0.18 -1.2,-0.13 -2.19,-0.34 -2.92,-0.58 -0.76,-0.26 -1.29,-0.57 -1.57,-0.97 -0.32,-0.39 -0.47,-0.83 -0.47,-1.33l0 -68.4c0,-0.49 0.13,-0.94 0.39,-1.33 0.23,-0.39 0.7,-0.71 1.36,-0.97 0.68,-0.23 1.51,-0.44 2.56,-0.57 1.05,-0.14 2.38,-0.19 3.95,-0.19 1.65,0 2.98,0.05 4.05,0.19 1.07,0.13 1.91,0.34 2.51,0.57 0.58,0.26 1,0.58 1.26,0.97 0.26,0.39 0.39,0.84 0.39,1.33l0 7.9c3.76,-4.08 7.61,-7.11 11.53,-9.15 3.9,-2.04 7.97,-3.06 12.21,-3.06 4.65,0 8.58,0.76 11.77,2.3 3.19,1.52 5.75,3.61 7.74,6.25 1.96,2.61 3.37,5.7 4.23,9.23 0.86,3.53 1.31,7.76 1.31,12.7l0 42.23zm38.22 0c0,0.5 -0.15,0.94 -0.47,1.33 -0.29,0.4 -0.81,0.71 -1.57,0.97 -0.73,0.24 -1.72,0.45 -2.93,0.58 -1.22,0.13 -2.79,0.18 -4.68,0.18 -1.88,0 -3.45,-0.05 -4.68,-0.18 -1.2,-0.13 -2.19,-0.34 -2.92,-0.58 -0.76,-0.26 -1.29,-0.57 -1.57,-0.97 -0.32,-0.39 -0.47,-0.83 -0.47,-1.33l0 -68.24c0,-0.5 0.15,-0.94 0.47,-1.33 0.28,-0.4 0.81,-0.74 1.57,-1 0.73,-0.29 1.72,-0.5 2.92,-0.65 1.23,-0.16 2.8,-0.24 4.68,-0.24 1.89,0 3.46,0.08 4.68,0.24 1.21,0.15 2.2,0.36 2.93,0.65 0.76,0.26 1.28,0.6 1.57,1 0.32,0.39 0.47,0.83 0.47,1.33l0 68.24zm1.57 -91.62c0,3.9 -0.78,6.57 -2.38,8.06 -1.59,1.49 -4.52,2.22 -8.84,2.22 -4.34,0 -7.29,-0.71 -8.78,-2.14 -1.52,-1.44 -2.28,-4.03 -2.28,-7.74 0,-3.9 0.79,-6.59 2.36,-8.11 1.54,-1.49 4.5,-2.25 8.86,-2.25 4.29,0 7.22,0.73 8.76,2.2 1.54,1.44 2.3,4.02 2.3,7.76zm69.29 80.72c0,1.33 -0.03,2.43 -0.1,3.35 -0.08,0.88 -0.19,1.64 -0.32,2.27 -0.13,0.6 -0.29,1.1 -0.47,1.49 -0.18,0.39 -0.57,0.86 -1.18,1.46 -0.62,0.58 -1.67,1.31 -3.13,2.15 -1.49,0.84 -3.17,1.59 -5.08,2.27 -1.88,0.66 -3.92,1.21 -6.14,1.6 -2.22,0.42 -4.52,0.63 -6.88,0.63 -5.25,0 -9.91,-0.81 -13.96,-2.46 -4.08,-1.62 -7.48,-4.05 -10.25,-7.24 -2.74,-3.19 -4.84,-7.12 -6.22,-11.72 -1.41,-4.6 -2.12,-9.86 -2.12,-15.79 0,-6.85 0.86,-12.79 2.56,-17.75 1.73,-5 4.11,-9.13 7.17,-12.4 3.06,-3.27 6.69,-5.7 10.87,-7.29 4.19,-1.6 8.79,-2.38 13.81,-2.38 2.04,0 4.03,0.18 6.01,0.55 1.96,0.34 3.79,0.83 5.52,1.43 1.7,0.63 3.24,1.31 4.58,2.07 1.36,0.78 2.32,1.44 2.87,2.01 0.58,0.55 0.97,1.02 1.21,1.42 0.2,0.39 0.39,0.88 0.52,1.49 0.13,0.62 0.23,1.38 0.31,2.27 0.08,0.92 0.11,1.99 0.11,3.27 0,2.98 -0.24,5.07 -0.76,6.27 -0.52,1.21 -1.18,1.81 -1.99,1.81 -0.86,0 -1.8,-0.37 -2.77,-1.07 -0.97,-0.71 -2.12,-1.52 -3.45,-2.38 -1.31,-0.87 -2.9,-1.68 -4.73,-2.38 -1.83,-0.71 -4.03,-1.07 -6.59,-1.07 -5.02,0 -8.84,1.93 -11.51,5.77 -2.64,3.87 -3.97,9.52 -3.97,16.97 0,3.66 0.34,6.91 0.99,9.73 0.68,2.8 1.65,5.15 2.96,7.03 1.3,1.89 2.92,3.32 4.89,4.27 1.98,0.94 4.26,1.41 6.87,1.41 2.64,0 4.94,-0.4 6.85,-1.21 1.91,-0.78 3.58,-1.67 5.02,-2.64 1.41,-0.96 2.62,-1.85 3.61,-2.64 0.97,-0.81 1.78,-1.2 2.43,-1.2 0.47,0 0.84,0.13 1.15,0.39 0.32,0.26 0.55,0.73 0.73,1.41 0.19,0.71 0.32,1.6 0.42,2.67 0.11,1.07 0.16,2.46 0.16,4.16z"/>
  <path class="fil1" d="M1297.37 498.57c0,0.7 -0.26,1.25 -0.76,1.67 -0.52,0.42 -1.33,0.71 -2.43,0.89 -1.1,0.18 -2.72,0.26 -4.89,0.26 -2.3,0 -3.97,-0.08 -5.02,-0.26 -1.05,-0.18 -1.8,-0.47 -2.22,-0.89 -0.45,-0.42 -0.66,-0.97 -0.66,-1.67l0 -5.44c-2.82,3.01 -6.01,5.33 -9.62,7.01 -3.58,1.67 -7.58,2.51 -11.97,2.51 -3.61,0 -6.96,-0.47 -9.99,-1.42 -3.03,-0.94 -5.65,-2.35 -7.87,-4.21 -2.22,-1.88 -3.95,-4.18 -5.18,-6.92 -1.23,-2.78 -1.83,-5.99 -1.83,-9.65 0,-4 0.79,-7.45 2.33,-10.38 1.57,-2.96 3.89,-5.36 6.98,-7.3 3.08,-1.91 6.9,-3.32 11.5,-4.23 4.58,-0.92 9.91,-1.39 15.98,-1.39l6.67 0 0 -4.13c0,-2.14 -0.21,-4.03 -0.66,-5.65 -0.42,-1.59 -1.15,-2.95 -2.14,-4.02 -0.99,-1.08 -2.3,-1.86 -3.98,-2.38 -1.64,-0.5 -3.71,-0.76 -6.14,-0.76 -3.22,0 -6.09,0.36 -8.6,1.07 -2.54,0.71 -4.76,1.52 -6.7,2.38 -1.93,0.86 -3.55,1.67 -4.86,2.38 -1.31,0.7 -2.35,1.07 -3.16,1.07 -0.58,0 -1.07,-0.18 -1.49,-0.52 -0.45,-0.37 -0.81,-0.89 -1.08,-1.55 -0.28,-0.65 -0.49,-1.49 -0.65,-2.45 -0.16,-0.97 -0.23,-2.04 -0.23,-3.19 0,-1.6 0.13,-2.85 0.39,-3.77 0.23,-0.91 0.73,-1.72 1.44,-2.48 0.73,-0.73 1.96,-1.54 3.76,-2.43 1.78,-0.89 3.87,-1.73 6.28,-2.49 2.4,-0.78 5.02,-1.41 7.84,-1.88 2.85,-0.5 5.78,-0.73 8.79,-0.73 5.36,0 9.93,0.52 13.75,1.57 3.79,1.04 6.93,2.66 9.36,4.83 2.46,2.17 4.26,4.97 5.39,8.4 1.12,3.4 1.67,7.47 1.67,12.15l0 46zm-18.98 -29.34l-7.35 0c-3.11,0 -5.75,0.24 -7.95,0.68 -2.2,0.47 -3.97,1.15 -5.36,2.09 -1.39,0.92 -2.38,2.02 -3.01,3.32 -0.65,1.31 -0.96,2.8 -0.96,4.47 0,2.88 0.91,5.13 2.72,6.75 1.8,1.65 4.31,2.46 7.53,2.46 2.69,0 5.17,-0.68 7.45,-2.07 2.27,-1.38 4.57,-3.4 6.93,-6.06l0 -11.64zm89.84 18.12c0,1.33 -0.03,2.46 -0.1,3.35 -0.08,0.89 -0.19,1.62 -0.32,2.25 -0.13,0.6 -0.29,1.09 -0.47,1.49 -0.18,0.39 -0.57,0.88 -1.18,1.49 -0.62,0.6 -1.7,1.33 -3.21,2.19 -1.54,0.89 -3.37,1.7 -5.49,2.46 -2.12,0.76 -4.37,1.28 -6.8,1.6l1.73 3.81c0.94,1.99 1.62,3.72 2.03,5.21 0.42,1.46 0.63,2.9 0.63,4.28 0,2.33 -0.42,4.34 -1.25,6.02 -0.87,1.7 -2.02,3.06 -3.53,4.13 -1.52,1.07 -3.24,1.88 -5.21,2.4 -1.96,0.55 -4.1,0.81 -6.4,0.81 -2.22,0 -4.32,-0.15 -6.22,-0.47 -1.91,-0.28 -3.51,-0.62 -4.79,-0.99 -1.28,-0.34 -2.2,-0.65 -2.72,-0.91 -0.55,-0.27 -0.91,-0.58 -1.12,-1 -0.19,-0.42 -0.34,-0.94 -0.45,-1.57 -0.1,-0.62 -0.15,-1.51 -0.15,-2.64 0,-2.04 0.18,-3.45 0.57,-4.26 0.37,-0.78 1.07,-1.18 2.09,-1.18l8.84 0c1.46,0 2.56,-0.31 3.27,-0.94 0.7,-0.65 1.07,-1.51 1.07,-2.64 0,-0.6 -0.1,-1.31 -0.34,-2.06 -0.23,-0.76 -0.52,-1.55 -0.89,-2.36l-3.01 -6.48c-4.99,-1.28 -9.15,-3.53 -12.47,-6.72 -3.32,-3.19 -5.8,-7.24 -7.48,-12.13 -1.64,-4.87 -2.48,-10.57 -2.48,-17.05 0,-6.85 0.86,-12.79 2.56,-17.75 1.73,-5 4.11,-9.13 7.17,-12.4 3.06,-3.29 6.69,-5.7 10.87,-7.29 4.19,-1.6 8.79,-2.38 13.81,-2.38 2.04,0 4.03,0.18 6.01,0.55 1.96,0.34 3.79,0.83 5.52,1.43 1.7,0.63 3.24,1.31 4.58,2.07 1.36,0.78 2.32,1.44 2.87,2.01 0.58,0.55 0.97,1.02 1.21,1.42 0.2,0.39 0.39,0.88 0.52,1.49 0.13,0.62 0.23,1.38 0.31,2.27 0.08,0.92 0.11,1.99 0.11,3.27 0,2.98 -0.24,5.07 -0.76,6.27 -0.52,1.21 -1.18,1.81 -1.99,1.81 -0.86,0 -1.8,-0.37 -2.77,-1.07 -0.97,-0.71 -2.12,-1.52 -3.45,-2.38 -1.31,-0.87 -2.9,-1.68 -4.73,-2.38 -1.83,-0.71 -4.03,-1.07 -6.59,-1.07 -5.02,0 -8.84,1.93 -11.51,5.77 -2.64,3.87 -3.97,9.52 -3.97,16.97 0,3.66 0.34,6.91 0.99,9.73 0.68,2.8 1.65,5.15 2.96,7.03 1.3,1.89 2.92,3.32 4.89,4.27 1.98,0.94 4.26,1.41 6.87,1.41 2.64,0 4.94,-0.4 6.85,-1.21 1.91,-0.78 3.58,-1.67 5.02,-2.64 1.41,-0.96 2.62,-1.85 3.61,-2.64 0.97,-0.81 1.78,-1.2 2.43,-1.2 0.47,0 0.84,0.13 1.15,0.39 0.32,0.24 0.55,0.71 0.73,1.41 0.19,0.68 0.32,1.57 0.42,2.64 0.11,1.08 0.16,2.44 0.16,4.11zm71.33 11.22c0,0.7 -0.26,1.25 -0.76,1.67 -0.52,0.42 -1.33,0.71 -2.43,0.89 -1.1,0.18 -2.72,0.26 -4.89,0.26 -2.3,0 -3.97,-0.08 -5.02,-0.26 -1.05,-0.18 -1.8,-0.47 -2.22,-0.89 -0.45,-0.42 -0.66,-0.97 -0.66,-1.67l0 -5.44c-2.82,3.01 -6.01,5.33 -9.62,7.01 -3.58,1.67 -7.58,2.51 -11.97,2.51 -3.61,0 -6.96,-0.47 -9.99,-1.42 -3.03,-0.94 -5.65,-2.35 -7.87,-4.21 -2.22,-1.88 -3.95,-4.18 -5.18,-6.92 -1.23,-2.78 -1.83,-5.99 -1.83,-9.65 0,-4 0.79,-7.45 2.33,-10.38 1.57,-2.96 3.89,-5.36 6.98,-7.3 3.08,-1.91 6.9,-3.32 11.5,-4.23 4.58,-0.92 9.91,-1.39 15.98,-1.39l6.67 0 0 -4.13c0,-2.14 -0.21,-4.03 -0.66,-5.65 -0.42,-1.59 -1.15,-2.95 -2.14,-4.02 -0.99,-1.08 -2.3,-1.86 -3.98,-2.38 -1.64,-0.5 -3.71,-0.76 -6.14,-0.76 -3.22,0 -6.09,0.36 -8.6,1.07 -2.54,0.71 -4.76,1.52 -6.7,2.38 -1.93,0.86 -3.55,1.67 -4.86,2.38 -1.31,0.7 -2.35,1.07 -3.16,1.07 -0.58,0 -1.07,-0.18 -1.49,-0.52 -0.45,-0.37 -0.81,-0.89 -1.08,-1.55 -0.28,-0.65 -0.49,-1.49 -0.65,-2.45 -0.16,-0.97 -0.23,-2.04 -0.23,-3.19 0,-1.6 0.13,-2.85 0.39,-3.77 0.23,-0.91 0.73,-1.72 1.44,-2.48 0.73,-0.73 1.96,-1.54 3.76,-2.43 1.78,-0.89 3.87,-1.73 6.28,-2.49 2.4,-0.78 5.02,-1.41 7.84,-1.88 2.85,-0.5 5.78,-0.73 8.79,-0.73 5.36,0 9.93,0.52 13.75,1.57 3.79,1.04 6.93,2.66 9.36,4.83 2.46,2.17 4.26,4.97 5.39,8.4 1.12,3.4 1.67,7.47 1.67,12.15l0 46zm-18.98 -29.34l-7.35 0c-3.11,0 -5.75,0.24 -7.95,0.68 -2.2,0.47 -3.97,1.15 -5.36,2.09 -1.39,0.92 -2.38,2.02 -3.01,3.32 -0.65,1.31 -0.96,2.8 -0.96,4.47 0,2.88 0.91,5.13 2.72,6.75 1.8,1.65 4.31,2.46 7.53,2.46 2.69,0 5.17,-0.68 7.45,-2.07 2.27,-1.38 4.57,-3.4 6.93,-6.06l0 -11.64zm17.25 -70.67c0,6.14 -1.46,10.85 -4.39,14.14 -2.95,3.27 -7.01,4.92 -12.21,4.92 -2.01,0 -3.76,-0.21 -5.28,-0.6 -1.54,-0.42 -2.93,-0.95 -4.16,-1.63 -1.2,-0.65 -2.33,-1.36 -3.32,-2.09 -0.99,-0.73 -1.96,-1.44 -2.88,-2.06 -0.91,-0.63 -1.8,-1.18 -2.71,-1.6 -0.89,-0.44 -1.84,-0.65 -2.85,-0.65 -1.7,0 -2.91,0.6 -3.64,1.8 -0.71,1.18 -1.07,2.75 -1.07,4.68 0,0.47 -0.08,0.84 -0.26,1.13 -0.19,0.26 -0.5,0.49 -0.92,0.62 -0.44,0.16 -1.04,0.27 -1.83,0.32 -0.81,0.05 -1.8,0.08 -3.03,0.08 -1.07,0 -1.96,-0.03 -2.72,-0.11 -0.73,-0.08 -1.31,-0.23 -1.75,-0.47 -0.42,-0.23 -0.76,-0.55 -0.94,-0.94 -0.21,-0.42 -0.32,-0.94 -0.32,-1.62 0,-5.88 1.44,-10.54 4.29,-13.91 2.85,-3.37 6.93,-5.07 12.24,-5.07 2.93,0 5.38,0.44 7.4,1.33 2.01,0.89 3.79,1.88 5.36,2.98 1.57,1.1 3,2.09 4.31,2.98 1.33,0.89 2.72,1.34 4.16,1.34 1.52,0 2.72,-0.55 3.53,-1.65 0.81,-1.1 1.23,-2.7 1.23,-4.84 0,-0.86 0.39,-1.44 1.15,-1.73 0.76,-0.28 2.3,-0.41 4.65,-0.41 2.3,0 3.87,0.18 4.71,0.57 0.84,0.37 1.25,1.2 1.25,2.49zm90 64.89c0,5.81 -0.75,11.11 -2.3,15.93 -1.54,4.78 -3.84,8.91 -6.98,12.39 -3.11,3.48 -7.01,6.14 -11.71,8.05 -4.71,1.88 -10.2,2.83 -16.47,2.83 -6.1,0 -11.38,-0.84 -15.88,-2.54 -4.49,-1.67 -8.23,-4.13 -11.19,-7.35 -2.95,-3.21 -5.15,-7.16 -6.59,-11.87 -1.43,-4.68 -2.14,-10.04 -2.14,-16.08 0,-5.8 0.79,-11.14 2.33,-15.95 1.57,-4.84 3.89,-8.97 7.03,-12.42 3.11,-3.42 7.01,-6.09 11.69,-8 4.65,-1.88 10.14,-2.82 16.42,-2.82 6.14,0 11.45,0.83 15.95,2.48 4.5,1.67 8.21,4.11 11.14,7.32 2.95,3.22 5.12,7.17 6.56,11.87 1.44,4.68 2.14,10.07 2.14,16.16zm-19.76 0.76c0,-3.37 -0.26,-6.48 -0.81,-9.31 -0.55,-2.85 -1.44,-5.31 -2.75,-7.4 -1.28,-2.09 -2.98,-3.74 -5.1,-4.91 -2.14,-1.18 -4.81,-1.76 -8.05,-1.76 -2.88,0 -5.39,0.53 -7.56,1.57 -2.14,1.05 -3.92,2.59 -5.31,4.61 -1.38,2.01 -2.43,4.44 -3.11,7.26 -0.7,2.85 -1.04,6.07 -1.04,9.7 0,3.38 0.29,6.49 0.83,9.31 0.58,2.85 1.49,5.31 2.75,7.4 1.25,2.09 2.95,3.72 5.12,4.87 2.15,1.15 4.82,1.72 8.01,1.72 2.92,0 5.46,-0.52 7.63,-1.57 2.14,-1.04 3.92,-2.56 5.31,-4.55 1.38,-2.01 2.4,-4.42 3.08,-7.24 0.66,-2.85 1,-6.07 1,-9.7z"/>
 </g>
</svg>
