<?xml version="1.0" encoding="UTF-8"?>
<!DOCTYPE svg PUBLIC "-//W3C//DTD SVG 1.1//EN" "http://www.w3.org/Graphics/SVG/1.1/DTD/svg11.dtd">
<!-- Creator: CorelDRAW 2020 (64 Bit) -->
<svg xmlns="http://www.w3.org/2000/svg" xml:space="preserve" width="9.3132mm" height="9.3132mm" version="1.1" style="shape-rendering:geometricPrecision; text-rendering:geometricPrecision; image-rendering:optimizeQuality; fill-rule:evenodd; clip-rule:evenodd"
viewBox="0 0 931.32 931.32"
 xmlns:xlink="http://www.w3.org/1999/xlink"
 xmlns:xodm="http://www.corel.com/coreldraw/odm/2003">
 <defs>
  <style type="text/css">
   <![CDATA[
    .fil0 {fill:white}
   ]]>
  </style>
 </defs>
 <g id="Camada_x0020_1">
  <metadata id="CorelCorpID_0Corel-Layer"/>
  <path class="fil0" d="M504.36 133.86c184.59,21.55 316.71,188.61 295.16,373.2 -21.55,184.56 -188.59,316.71 -373.17,295.18 -184.56,-21.55 -316.74,-188.64 -295.19,-373.2 21.55,-184.58 188.64,-316.74 373.2,-295.18zm247.53 -93.58c42.43,4.95 72.82,43.37 67.88,85.79 -4.97,42.43 -43.34,72.82 -85.79,67.86 -42.46,-4.95 -72.82,-43.37 -67.84,-85.8 4.91,-42.42 43.32,-72.81 85.75,-67.85zm-233.2 -29.05c44.56,5.21 86.88,16.69 126.19,33.4 -4.6,6.18 -8.59,12.85 -11.95,19.91 -36.49,-15.21 -75.67,-25.66 -116.91,-30.45 -238.35,-27.83 -454.15,142.84 -481.98,381.2 -27.79,238.34 142.89,454.14 381.23,481.97 238.33,27.83 454.15,-142.88 481.96,-381.21 13.05,-111.84 -17.6,-218.67 -78.46,-303.5 6.07,-4.83 11.68,-10.21 16.75,-16.11 65.32,89.73 98.44,203.33 84.54,322.28 -29.31,250.96 -256.48,430.67 -507.48,401.36 -250.94,-29.28 -430.66,-256.5 -401.35,-507.46 29.29,-250.98 256.48,-430.67 507.46,-401.39zm43.96 384.35c40,-40.01 104.88,-40.01 144.89,0l-39.2 39.18c-18.35,-18.37 -48.15,-18.37 -66.54,0 -18.37,18.36 -18.37,48.14 0,66.53 18.39,18.37 48.19,18.37 66.54,0l39.2 39.16c-40.01,40 -104.89,40 -144.89,0 -39.99,-40.01 -39.99,-104.86 0,-144.87zm-242.98 -29.67l0 0c53.06,0 96.52,46.02 96.52,102.28l0 102.26 -60.69 0 0 -97.93c0,-16.71 -10.33,-30.97 -24.55,-35.97 -7.58,-2.67 -15.79,-2.53 -23.32,0.36 -13.73,5.29 -23.59,19.29 -23.59,35.61l0 97.93 -60.89 0 0 -102.26c0,-56.26 43.46,-102.28 96.52,-102.28zm131.12 2.56l52.65 0c3.21,0 5.79,2.58 5.79,5.76l0 190.46c0,3.18 -2.58,5.76 -5.79,5.76l-52.65 0c-3.21,0 -5.79,-2.58 -5.79,-5.76l0 -190.46c0,-3.18 2.58,-5.76 5.79,-5.76zm26.33 -81.27c16.5,0 29.84,13.36 29.84,29.85 0,16.48 -13.34,29.85 -29.84,29.85 -16.46,0 -29.85,-13.37 -29.85,-29.85 0,-16.49 13.39,-29.85 29.85,-29.85z"/>
 </g>
</svg>
